<mxfile host="app.diagrams.net" agent="Mozilla/5.0 (Windows NT 10.0; Win64; x64) AppleWebKit/537.36 (KHTML, like Gecko) Chrome/129.0.0.0 Safari/537.36 Edg/129.0.0.0" version="24.7.17">
  <diagram name="Sayfa -1" id="1SkgKeFaMwc3EXTxTQ3t">
    <mxGraphModel dx="1042" dy="575" grid="1" gridSize="10" guides="1" tooltips="1" connect="1" arrows="1" fold="1" page="1" pageScale="1" pageWidth="827" pageHeight="1169" math="0" shadow="0">
      <root>
        <mxCell id="0" />
        <mxCell id="1" parent="0" />
        <mxCell id="Y0ZQAaRcCE09pY4MArYz-5" value="" style="edgeStyle=orthogonalEdgeStyle;rounded=0;orthogonalLoop=1;jettySize=auto;html=1;" edge="1" parent="1" source="Y0ZQAaRcCE09pY4MArYz-1" target="Y0ZQAaRcCE09pY4MArYz-4">
          <mxGeometry relative="1" as="geometry" />
        </mxCell>
        <mxCell id="Y0ZQAaRcCE09pY4MArYz-1" value="BaÅŸla" style="ellipse;whiteSpace=wrap;html=1;" vertex="1" parent="1">
          <mxGeometry x="330" width="120" height="80" as="geometry" />
        </mxCell>
        <mxCell id="Y0ZQAaRcCE09pY4MArYz-3" value="" style="edgeStyle=orthogonalEdgeStyle;rounded=0;orthogonalLoop=1;jettySize=auto;html=1;entryX=0.5;entryY=0;entryDx=0;entryDy=0;" edge="1" parent="1">
          <mxGeometry relative="1" as="geometry">
            <mxPoint x="380" y="150" as="sourcePoint" />
            <mxPoint x="380" y="150" as="targetPoint" />
          </mxGeometry>
        </mxCell>
        <mxCell id="Y0ZQAaRcCE09pY4MArYz-7" value="" style="edgeStyle=orthogonalEdgeStyle;rounded=0;orthogonalLoop=1;jettySize=auto;html=1;" edge="1" parent="1" source="Y0ZQAaRcCE09pY4MArYz-4" target="Y0ZQAaRcCE09pY4MArYz-6">
          <mxGeometry relative="1" as="geometry" />
        </mxCell>
        <mxCell id="Y0ZQAaRcCE09pY4MArYz-4" value="X" style="shape=parallelogram;perimeter=parallelogramPerimeter;whiteSpace=wrap;html=1;fixedSize=1;" vertex="1" parent="1">
          <mxGeometry x="330" y="140" width="120" height="60" as="geometry" />
        </mxCell>
        <mxCell id="Y0ZQAaRcCE09pY4MArYz-16" value="" style="edgeStyle=orthogonalEdgeStyle;rounded=0;orthogonalLoop=1;jettySize=auto;html=1;" edge="1" parent="1" source="Y0ZQAaRcCE09pY4MArYz-6" target="Y0ZQAaRcCE09pY4MArYz-8">
          <mxGeometry relative="1" as="geometry" />
        </mxCell>
        <mxCell id="Y0ZQAaRcCE09pY4MArYz-6" value="Y" style="shape=parallelogram;perimeter=parallelogramPerimeter;whiteSpace=wrap;html=1;fixedSize=1;" vertex="1" parent="1">
          <mxGeometry x="330" y="260" width="120" height="60" as="geometry" />
        </mxCell>
        <mxCell id="Y0ZQAaRcCE09pY4MArYz-18" value="Y" style="edgeStyle=orthogonalEdgeStyle;rounded=0;orthogonalLoop=1;jettySize=auto;html=1;" edge="1" parent="1" source="Y0ZQAaRcCE09pY4MArYz-8">
          <mxGeometry relative="1" as="geometry">
            <mxPoint x="390" y="480" as="targetPoint" />
          </mxGeometry>
        </mxCell>
        <mxCell id="Y0ZQAaRcCE09pY4MArYz-24" value="D" style="edgeStyle=orthogonalEdgeStyle;rounded=0;orthogonalLoop=1;jettySize=auto;html=1;" edge="1" parent="1" source="Y0ZQAaRcCE09pY4MArYz-8">
          <mxGeometry relative="1" as="geometry">
            <mxPoint x="490" y="400" as="targetPoint" />
          </mxGeometry>
        </mxCell>
        <mxCell id="Y0ZQAaRcCE09pY4MArYz-8" value="X&amp;gt;Y" style="rhombus;whiteSpace=wrap;html=1;" vertex="1" parent="1">
          <mxGeometry x="350" y="360" width="80" height="80" as="geometry" />
        </mxCell>
        <mxCell id="Y0ZQAaRcCE09pY4MArYz-15" value="" style="edgeStyle=orthogonalEdgeStyle;rounded=0;orthogonalLoop=1;jettySize=auto;html=1;" edge="1" parent="1" source="Y0ZQAaRcCE09pY4MArYz-10" target="Y0ZQAaRcCE09pY4MArYz-11">
          <mxGeometry relative="1" as="geometry" />
        </mxCell>
        <mxCell id="Y0ZQAaRcCE09pY4MArYz-10" value="S" style="shape=document;whiteSpace=wrap;html=1;boundedLbl=1;" vertex="1" parent="1">
          <mxGeometry x="490" y="470" width="120" height="80" as="geometry" />
        </mxCell>
        <mxCell id="Y0ZQAaRcCE09pY4MArYz-11" value="SON" style="ellipse;whiteSpace=wrap;html=1;" vertex="1" parent="1">
          <mxGeometry x="660" y="470" width="120" height="80" as="geometry" />
        </mxCell>
        <mxCell id="Y0ZQAaRcCE09pY4MArYz-29" value="" style="edgeStyle=orthogonalEdgeStyle;rounded=0;orthogonalLoop=1;jettySize=auto;html=1;" edge="1" parent="1" source="Y0ZQAaRcCE09pY4MArYz-25" target="Y0ZQAaRcCE09pY4MArYz-10">
          <mxGeometry relative="1" as="geometry" />
        </mxCell>
        <mxCell id="Y0ZQAaRcCE09pY4MArYz-25" value="S=X*Y" style="rounded=0;whiteSpace=wrap;html=1;" vertex="1" parent="1">
          <mxGeometry x="490" y="370" width="120" height="60" as="geometry" />
        </mxCell>
        <mxCell id="Y0ZQAaRcCE09pY4MArYz-27" value="" style="edgeStyle=orthogonalEdgeStyle;rounded=0;orthogonalLoop=1;jettySize=auto;html=1;" edge="1" parent="1" source="Y0ZQAaRcCE09pY4MArYz-26" target="Y0ZQAaRcCE09pY4MArYz-10">
          <mxGeometry relative="1" as="geometry" />
        </mxCell>
        <mxCell id="Y0ZQAaRcCE09pY4MArYz-26" value="S=X+Y" style="rounded=0;whiteSpace=wrap;html=1;" vertex="1" parent="1">
          <mxGeometry x="330" y="480" width="120" height="60" as="geometry" />
        </mxCell>
      </root>
    </mxGraphModel>
  </diagram>
</mxfile>
